<?xml version="1.0" encoding="UTF-8"?>
<svg version="1.1" xmlns="http://www.w3.org/2000/svg" width="312" height="82">
<path d="M0 0 C5.40340275 2.70170138 9.06806699 5.64573185 12 11 C12.96096392 16.28660017 12.46987222 21.68130755 12 27 C8.7 27.33 5.4 27.66 2 28 C3.093125 29.155 4.18625 30.31 5.3125 31.5 C10.10329724 37.03905563 12.35856164 41.65596115 12 49.0625 C11.28155259 54.03813047 9.63045037 57.50882522 6 61 C-1.83758891 66.75107195 -11.39551888 67.32580367 -20.82421875 66.48535156 C-26.42760443 65.23540422 -29.89175439 60.56865246 -33 56 C-33 55.67 -33 55.34 -33 55 C-32.04746338 54.93268677 -32.04746338 54.93268677 -31.07568359 54.86401367 C-28.1743307 54.65155823 -25.27483626 54.41970631 -22.375 54.1875 C-21.37597656 54.11724609 -20.37695312 54.04699219 -19.34765625 53.97460938 C-12.68589843 53.42313936 -7.70812094 52.56173602 -2.6875 47.8125 C-0.55581316 44.2596886 0.18034594 41.09306875 0 37 C-2.13511992 29.52708028 -7.46341117 24.42753619 -12.9375 19.125 C-15 17 -15 17 -15 15 C-10.05 15 -5.1 15 0 15 C0 10.05 0 5.1 0 0 Z " fill="#DAD8E3" transform="translate(49,16)"/>
<path d="M0 0 C3.30288345 2.5160053 5.84848749 5.58983734 8.13623047 9.03027344 C8.13623047 9.36027344 8.13623047 9.69027344 8.13623047 10.03027344 C7.4761499 10.06991211 6.81606934 10.10955078 6.13598633 10.15039062 C3.11376995 10.34221009 0.09407485 10.56101069 -2.92626953 10.78027344 C-3.96460938 10.84214844 -5.00294922 10.90402344 -6.07275391 10.96777344 C-13.35941048 11.52294727 -18.68880308 12.54805217 -23.80126953 18.15527344 C-25.70565626 23.30831989 -26.0932662 28.30106106 -23.79736328 33.39746094 C-20.64325652 38.36496422 -16.70502014 42.41338382 -12.40283203 46.40136719 C-10.86376953 48.03027344 -10.86376953 48.03027344 -10.86376953 50.03027344 C-15.81376953 50.03027344 -20.76376953 50.03027344 -25.86376953 50.03027344 C-25.86376953 54.98027344 -25.86376953 59.93027344 -25.86376953 65.03027344 C-30.94189453 60.73339844 -30.94189453 60.73339844 -32.86376953 59.03027344 C-33.59595703 58.48371094 -34.32814453 57.93714844 -35.08251953 57.37402344 C-37.77215544 53.83502882 -37.29972781 50.59307505 -37.11376953 46.28027344 C-37.09572266 45.4875 -37.07767578 44.69472656 -37.05908203 43.87792969 C-37.01210035 41.92818996 -36.94035997 39.97907466 -36.86376953 38.03027344 C-33.56376953 38.03027344 -30.26376953 38.03027344 -26.86376953 38.03027344 C-27.50185547 37.27101562 -28.13994141 36.51175781 -28.79736328 35.72949219 C-29.62365234 34.735625 -30.44994141 33.74175781 -31.30126953 32.71777344 C-32.12498047 31.73164062 -32.94869141 30.74550781 -33.79736328 29.72949219 C-37.85928166 24.4236593 -37.57307397 18.46293093 -36.86376953 12.03027344 C-35.17218662 7.31963224 -32.57079052 4.17841007 -28.30126953 1.59277344 C-20.63377028 -1.89245349 -7.77302258 -4.04433399 0 0 Z " fill="#DAD8E3" transform="translate(36.86376953125,0.9697265625)"/>
<path d="M0 0 C3.114375 -0.061875 6.22875 -0.12375 9.4375 -0.1875 C10.39970459 -0.21481201 11.36190918 -0.24212402 12.35327148 -0.27026367 C18.11969821 -0.3249803 23.90422353 0.04302008 29 3 C31.36332426 6.64386927 31.3768047 9.70442637 31 14 C29.5 16.9375 29.5 16.9375 28 19 C28.99 19.66 29.98 20.32 31 21 C32.38277259 25.14831778 32.55290618 29.00953777 31.375 33.25 C29.20785464 36.008185 27.3160071 36.73893374 24 38 C19.86610433 38.363217 15.77062578 38.28198482 11.625 38.1875 C7.78875 38.125625 3.9525 38.06375 0 38 C0 25.46 0 12.92 0 0 Z M13 8 C13 10.31 13 12.62 13 15 C14.98 15 16.96 15 19 15 C19.67958603 12.60280568 19.67958603 12.60280568 20 10 C18.16116119 7.71271266 18.16116119 7.71271266 15.375 7.875 C14.199375 7.936875 14.199375 7.936875 13 8 Z M13 23 C13 25.31 13 27.62 13 30 C14.99954746 30.04254356 17.00041636 30.04080783 19 30 C20.28322547 28.9404123 20.28322547 28.9404123 20.125 26.5 C20.28322547 24.0595877 20.28322547 24.0595877 19 23 C17.00041636 22.95919217 14.99954746 22.95745644 13 23 Z " fill="#DAD8E3" transform="translate(215,27)"/>
<path d="M0 0 C0.83080078 0.00193359 1.66160156 0.00386719 2.51757812 0.00585938 C3.80631836 0.02422852 3.80631836 0.02422852 5.12109375 0.04296875 C5.98412109 0.04361328 6.84714844 0.04425781 7.73632812 0.04492188 C14.13621652 0.08967634 14.13621652 0.08967634 17.55859375 1.23046875 C17.55859375 4.20046875 17.55859375 7.17046875 17.55859375 10.23046875 C12.27859375 10.23046875 6.99859375 10.23046875 1.55859375 10.23046875 C1.55859375 11.22046875 1.55859375 12.21046875 1.55859375 13.23046875 C2.28304687 13.3284375 3.0075 13.42640625 3.75390625 13.52734375 C9.65757607 14.44044468 13.99965712 15.2713922 18.55859375 19.23046875 C20.18930864 24.12261341 19.89599062 28.03965626 18.49609375 32.98046875 C16.57429328 36.20413406 15.33447034 37.58114632 11.7734375 38.80078125 C3.88222485 40.33170434 -3.76682 39.27702508 -11.44140625 37.23046875 C-10.94640625 32.77546875 -10.94640625 32.77546875 -10.44140625 28.23046875 C-5.16140625 28.23046875 0.11859375 28.23046875 5.55859375 28.23046875 C5.88859375 27.57046875 6.21859375 26.91046875 6.55859375 26.23046875 C5.83414063 26.1325 5.1096875 26.03453125 4.36328125 25.93359375 C-1.54038857 25.02049282 -5.88246962 24.1895453 -10.44140625 20.23046875 C-12.20009887 14.9543909 -12.08925011 10.01203937 -10.19140625 4.79296875 C-7.46811722 0.80529553 -4.71905075 -0.02564975 0 0 Z " fill="#DAD8E3" transform="translate(91.44140625,26.76953125)"/>
<path d="M0 0 C4.29 0 8.58 0 13 0 C13.66 5.94 14.32 11.88 15 18 C15.66 18 16.32 18 17 18 C16.98839844 17.3709375 16.97679687 16.741875 16.96484375 16.09375 C16.90713127 10.61930912 17.19771527 5.41542194 18 0 C21.96 0 25.92 0 30 0 C28.55470051 13.1027809 26.33551943 26.02993094 24 39 C19.71 39 15.42 39 11 39 C12.875 30.25 12.875 30.25 14 28 C11.03 28 8.06 28 5 28 C3.11352564 22.08631297 2.19808416 16.20623535 1.375 10.0625 C1.2409375 9.09248047 1.106875 8.12246094 0.96875 7.12304688 C0.64133851 4.74931356 0.32004551 2.37473767 0 0 Z " fill="#DAD8E3" transform="translate(282,37)"/>
<path d="M0 0 C3.96 0 7.92 0 12 0 C12.33 5.94 12.66 11.88 13 18 C13.99 18 14.98 18 16 18 C16.33 12.06 16.66 6.12 17 0 C20.96 0 24.92 0 29 0 C29 9.24 29 18.48 29 28 C24.38 28 19.76 28 15 28 C14.34 28.33 13.68 28.66 13 29 C10.9765625 29.08984375 10.9765625 29.08984375 8.625 28.9375 C7.85414063 28.90527344 7.08328125 28.87304688 6.2890625 28.83984375 C3.55499487 27.8367302 2.23979655 26.50803187 0.74560547 24.0168457 C-0.84269211 19.72053715 -0.40139949 15.13786931 -0.25 10.625 C-0.23195312 9.60277344 -0.21390625 8.58054687 -0.1953125 7.52734375 C-0.14840557 5.01782302 -0.07666924 2.50878783 0 0 Z " fill="#DAD8E3" transform="translate(250,37)"/>
<path d="M0 0 C0.845625 0.556875 1.69125 1.11375 2.5625 1.6875 C3.4596875 2.2753125 3.4596875 2.2753125 4.375 2.875 C6.31712 5.83928842 6.53563589 9.18844975 6.5625 12.6875 C6.2325 14.0075 5.9025 15.3275 5.5625 16.6875 C0.2825 17.0175 -4.9975 17.3475 -10.4375 17.6875 C-10.4375 18.3475 -10.4375 19.0075 -10.4375 19.6875 C-5.1575 19.6875 0.1225 19.6875 5.5625 19.6875 C5.5625 21.9975 5.5625 24.3075 5.5625 26.6875 C2.7781173 29.4718827 -4.28663636 28.83111441 -8 28.9375 C-13.50920097 28.87704238 -17.08876955 27.79325833 -21.25 24.0625 C-23.70190174 19.15869652 -23.87227463 13.76665243 -22.8125 8.4375 C-21.30866382 4.33612859 -19.81713615 2.40769495 -16.4375 -0.3125 C-10.95281732 -2.14072756 -5.39154302 -2.05858915 0 0 Z M-9.4375 6.6875 C-10.0975 8.0075 -10.7575 9.3275 -11.4375 10.6875 C-9.4575 10.6875 -7.4775 10.6875 -5.4375 10.6875 C-6.0975 9.3675 -6.7575 8.0475 -7.4375 6.6875 C-8.0975 6.6875 -8.7575 6.6875 -9.4375 6.6875 Z " fill="#DAD8E3" transform="translate(189.4375,37.3125)"/>
<path d="M0 0 C5.30032468 3.40735158 5.30032468 3.40735158 6.171875 6.84375 C6.27242187 8.00390625 6.27242187 8.00390625 6.375 9.1875 C6.45234375 9.9609375 6.5296875 10.734375 6.609375 11.53125 C6.625 13.6875 6.625 13.6875 5.625 16.6875 C0.345 17.0175 -4.935 17.3475 -10.375 17.6875 C-10.375 18.3475 -10.375 19.0075 -10.375 19.6875 C-5.095 19.6875 0.185 19.6875 5.625 19.6875 C5.625 21.9975 5.625 24.3075 5.625 26.6875 C2.8406173 29.4718827 -4.22413636 28.83111441 -7.9375 28.9375 C-12.47867854 28.88766539 -15.56605495 28.35376153 -19.375 25.6875 C-22.71009321 22.25666248 -22.78025623 19.5022164 -22.75 14.8125 C-22.75773438 13.61882813 -22.76546875 12.42515625 -22.7734375 11.1953125 C-22.33761579 7.35837233 -21.4164647 4.9500277 -19.375 1.6875 C-13.15401154 -2.04509308 -6.78986058 -2.64050134 0 0 Z M-9.375 6.6875 C-10.035 8.0075 -10.695 9.3275 -11.375 10.6875 C-9.395 10.6875 -7.415 10.6875 -5.375 10.6875 C-5.705 9.3675 -6.035 8.0475 -6.375 6.6875 C-7.365 6.6875 -8.355 6.6875 -9.375 6.6875 Z " fill="#DAD8E3" transform="translate(157.375,37.3125)"/>
<path d="M0 0 C3.96 0 7.92 0 12 0 C12 1.98 12 3.96 12 6 C13.65 6 15.3 6 17 6 C17 8.97 17 11.94 17 15 C15.35 15 13.7 15 12 15 C12.33 17.97 12.66 20.94 13 24 C14.32 24.33 15.64 24.66 17 25 C17 27.97 17 30.94 17 34 C12.08874796 35.63708401 7.75275949 35.78314786 3.0625 33.6875 C1 32 1 32 0 29 C-0.06970052 26.60509014 -0.08448003 24.20832309 -0.0625 21.8125 C-0.05347656 20.54019531 -0.04445313 19.26789062 -0.03515625 17.95703125 C-0.02355469 16.98121094 -0.01195313 16.00539063 0 15 C-0.66 15 -1.32 15 -2 15 C-2 12.03 -2 9.06 -2 6 C-1.34 6 -0.68 6 0 6 C0 4.02 0 2.04 0 0 Z " fill="#DAD8E3" transform="translate(115,31)"/>
<path d="M0 0 C3.96 0 7.92 0 12 0 C12 12.87 12 25.74 12 39 C8.04 39 4.08 39 0 39 C0 26.13 0 13.26 0 0 Z " fill="#DAD8E3" transform="translate(199,26)"/>
</svg>
